<svg width="24" height="24" viewBox="0 0 24 24" fill="none" xmlns="http://www.w3.org/2000/svg">
<path d="M22.5001 19.4994H13.5001V20.9994H22.5001V19.4994Z" fill="white"/>
<path d="M22.5001 15.7494H13.5001V17.2494H22.5001V15.7494Z" fill="white"/>
<path d="M22.5001 11.9994H13.5001V13.4994H22.5001V11.9994Z" fill="white"/>
<path d="M10.5001 18.7494H7.12505C5.7196 18.7501 4.36485 18.2244 3.32776 17.2758C2.29068 16.3272 1.64647 15.0246 1.52208 13.6247C1.39768 12.2248 1.80213 10.829 2.65572 9.71245C3.50932 8.5959 4.75014 7.83953 6.1337 7.5924C6.48447 5.75932 7.50609 4.12287 8.99896 3.00279C10.4918 1.88271 12.3487 1.35948 14.2067 1.53534C16.0648 1.71119 17.7905 2.57348 19.0467 3.95374C20.3029 5.33401 20.9994 7.13306 21.0001 8.9994H19.5001C19.5003 7.46468 18.9124 5.98822 17.8573 4.87376C16.8021 3.75929 15.36 3.09159 13.8275 3.00801C12.2951 2.92442 10.7889 3.43132 9.61879 4.42441C8.44869 5.4175 7.70368 6.82126 7.53703 8.3469L7.46953 8.97203L6.8423 9.0144C5.7749 9.08621 4.77721 9.57018 4.06008 10.3641C3.34295 11.1579 2.96254 12.1995 2.99926 13.2687C3.03597 14.3379 3.48691 15.3509 4.25681 16.0938C5.02671 16.8366 6.05523 17.251 7.12505 17.2494H10.5001V18.7494Z" fill="white"/>
</svg>
